<?xml version="1.0" encoding="iso-8859-1"?>
<!-- Generator: Adobe Illustrator 19.0.0, SVG Export Plug-In . SVG Version: 6.00 Build 0)  -->
<svg version="1.1" id="Layer_1" xmlns="http://www.w3.org/2000/svg" xmlns:xlink="http://www.w3.org/1999/xlink" x="0px" y="0px"
	 viewBox="0 0 325.68 325.68" style="enable-background:new 0 0 325.68 325.68;" xml:space="preserve">
<g>
	<g>
		<path d="M298.18,59.218h-69.84V28.132c0-10.752-8.748-19.5-19.5-19.5h-92c-10.752,0-19.5,8.748-19.5,19.5v31.086H27.5
			c-15.164,0-27.5,12.337-27.5,27.5c0,8.274,0,195.532,0,202.83c0,15.163,12.336,27.5,27.5,27.5h270.68
			c15.164,0,27.5-12.337,27.5-27.5c0-7.306,0-194.558,0-202.83C325.68,71.555,313.343,59.218,298.18,59.218z M112.34,28.132
			c0-2.481,2.019-4.5,4.5-4.5h92c2.481,0,4.5,2.019,4.5,4.5v31.086h-9V40.132c0-4.142-3.358-7.5-7.5-7.5h-68
			c-4.142,0-7.5,3.358-7.5,7.5v19.086h-9V28.132z M189.34,47.632v11.586h-53V47.632H189.34z M310.68,289.548
			c0,6.892-5.607,12.5-12.5,12.5H27.5c-6.893,0-12.5-5.608-12.5-12.5V192.61c7.543,3.867,10.578,3.018,42.44,3.018v22
			c0,4.143,3.358,7.5,7.5,7.5h35.8c4.142,0,7.5-3.357,7.5-7.5v-22h109.2v22c0,4.143,3.358,7.5,7.5,7.5h35.8
			c4.142,0,7.5-3.357,7.5-7.5v-22c31.92,0,34.913,0.841,42.44-3.018V289.548z M72.44,210.128v-22v-22h20.8v22v22H72.44z
			 M232.44,210.128v-22v-22h20.8v22v22H232.44z M310.68,168.128c0,6.893-5.607,12.5-12.5,12.5h-29.94v-22c0-4.143-3.358-7.5-7.5-7.5
			h-35.8c-4.142,0-7.5,3.357-7.5,7.5v22h-109.2v-22c0-4.143-3.358-7.5-7.5-7.5h-35.8c-4.142,0-7.5,3.357-7.5,7.5v22H27.5
			c-6.893,0-12.5-5.607-12.5-12.5v-81.41c0-6.893,5.607-12.5,12.5-12.5c14.3,0,257.43,0,270.68,0c6.893,0,12.5,5.607,12.5,12.5
			V168.128z"/>
	</g>
</g>
<g>
</g>
<g>
</g>
<g>
</g>
<g>
</g>
<g>
</g>
<g>
</g>
<g>
</g>
<g>
</g>
<g>
</g>
<g>
</g>
<g>
</g>
<g>
</g>
<g>
</g>
<g>
</g>
<g>
</g>
</svg>
